<svg width="180" height="180" viewBox="0 0 180 180" fill="none" xmlns="http://www.w3.org/2000/svg">
<path d="M132.759 84.5342C136.376 86.6226 136.376 91.8435 132.759 93.9318L73.7039 128.027C70.0868 130.116 65.5654 127.505 65.5654 123.329L65.5654 55.1375C65.5654 50.9608 70.0868 48.3504 73.7039 50.4387L132.759 84.5342ZM133.509 95.2309C138.126 92.5652 138.126 85.9009 133.509 83.2352L74.4539 49.1397C69.8368 46.474 64.0654 49.8061 64.0654 55.1375L64.0654 123.329C64.0654 128.66 69.8368 131.992 74.4539 129.326L133.509 95.2309ZM178.702 90.005C178.702 139.047 138.946 178.803 89.9042 178.803C40.8625 178.803 1.10645 139.047 1.10645 90.005C1.10645 40.9634 40.8625 1.20728 89.9042 1.20728C138.946 1.20728 178.702 40.9634 178.702 90.005Z" stroke="white" stroke-width="1.5"/>
</svg>
