<svg width="152" height="23" viewBox="0 0 152 23" fill="none" xmlns="http://www.w3.org/2000/svg">
<g id="SNOOPY">
<path d="M9.40586 23C6.74244 23 4.5404 22.3778 2.79974 21.1334C1.08005 19.868 0.146803 18.0225 0 15.597H7.42402C7.52888 16.8835 8.09512 17.5268 9.12274 17.5268C9.50023 17.5268 9.81481 17.4425 10.0665 17.2737C10.3391 17.0839 10.4754 16.7992 10.4754 16.4195C10.4754 15.8923 10.1923 15.4704 9.62606 15.1541C9.05982 14.8166 8.17901 14.437 6.98361 14.0151C5.55753 13.5089 4.37262 13.0133 3.42889 12.5282C2.50613 12.0431 1.7092 11.3365 1.0381 10.4085C0.367007 9.48051 0.0419436 8.28886 0.0629154 6.83356C0.0629154 5.37827 0.429922 4.14443 1.16394 3.13205C1.91892 2.09858 2.93605 1.3182 4.21533 0.790921C5.51559 0.26364 6.97313 0 8.58796 0C11.3143 0 13.4744 0.632737 15.0682 1.89821C16.6831 3.16369 17.5324 4.9459 17.6163 7.24484H10.0979C10.077 6.6121 9.91967 6.15864 9.62606 5.88446C9.33246 5.61027 8.97593 5.47318 8.5565 5.47318C8.26289 5.47318 8.02172 5.57863 7.83297 5.78955C7.64422 5.97937 7.54985 6.25355 7.54985 6.6121C7.54985 7.11829 7.82249 7.54012 8.36775 7.87758C8.93399 8.19395 9.82529 8.58413 11.0417 9.04814C12.4468 9.57542 13.6002 10.0816 14.502 10.5667C15.4248 11.0518 16.2217 11.7267 16.8928 12.5915C17.5639 13.4562 17.8994 14.5424 17.8994 15.8501C17.8994 17.221 17.5639 18.4548 16.8928 19.5516C16.2217 20.6272 15.2465 21.4709 13.9672 22.0825C12.6879 22.6942 11.1675 23 9.40586 23Z" fill="#2E2E2E"/>
<path d="M44.8587 22.7785H37.8751L30.4825 11.5158V22.7785H23.4989V0.379643H30.4825L37.8751 11.8322V0.379643H44.8587V22.7785Z" fill="#2E2E2E"/>
<path d="M62.0125 23C59.9153 23 57.9859 22.5044 56.2243 21.5131C54.4836 20.5218 53.0995 19.1508 52.0719 17.4003C51.0442 15.6497 50.5304 13.6777 50.5304 11.4842C50.5304 9.29069 51.0442 7.31866 52.0719 5.56809C53.0995 3.81751 54.4836 2.45713 56.2243 1.48693C57.9859 0.495644 59.9153 0 62.0125 0C64.1097 0 66.0286 0.495644 67.7693 1.48693C69.5099 2.45713 70.8836 3.81751 71.8902 5.56809C72.9178 7.31866 73.4316 9.29069 73.4316 11.4842C73.4316 13.6777 72.9178 15.6497 71.8902 17.4003C70.8836 19.1508 69.4994 20.5218 67.7378 21.5131C65.9971 22.5044 64.0887 23 62.0125 23ZM62.0125 16.4512C63.3966 16.4512 64.4662 16.0083 65.2212 15.1224C65.9762 14.2155 66.3537 13.0027 66.3537 11.4842C66.3537 9.94452 65.9762 8.73177 65.2212 7.84594C64.4662 6.93902 63.3966 6.48556 62.0125 6.48556C60.6074 6.48556 59.5273 6.93902 58.7723 7.84594C58.0174 8.73177 57.6399 9.94452 57.6399 11.4842C57.6399 13.0027 58.0174 14.2155 58.7723 15.1224C59.5273 16.0083 60.6074 16.4512 62.0125 16.4512Z" fill="#2E2E2E"/>
<path d="M89.9497 23C87.8525 23 85.9231 22.5044 84.1614 21.5131C82.4208 20.5218 81.0366 19.1508 80.009 17.4003C78.9814 15.6497 78.4676 13.6777 78.4676 11.4842C78.4676 9.29069 78.9814 7.31866 80.009 5.56809C81.0366 3.81751 82.4208 2.45713 84.1614 1.48693C85.9231 0.495644 87.8525 0 89.9497 0C92.0468 0 93.9658 0.495644 95.7064 1.48693C97.4471 2.45713 98.8207 3.81751 99.8274 5.56809C100.855 7.31866 101.369 9.29069 101.369 11.4842C101.369 13.6777 100.855 15.6497 99.8274 17.4003C98.8207 19.1508 97.4366 20.5218 95.675 21.5131C93.9343 22.5044 92.0259 23 89.9497 23ZM89.9497 16.4512C91.3338 16.4512 92.4033 16.0083 93.1583 15.1224C93.9133 14.2155 94.2908 13.0027 94.2908 11.4842C94.2908 9.94452 93.9133 8.73177 93.1583 7.84594C92.4033 6.93902 91.3338 6.48556 89.9497 6.48556C88.5445 6.48556 87.4645 6.93902 86.7095 7.84594C85.9545 8.73177 85.577 9.94452 85.577 11.4842C85.577 13.0027 85.9545 14.2155 86.7095 15.1224C87.4645 16.0083 88.5445 16.4512 89.9497 16.4512Z" fill="#2E2E2E"/>
<path d="M125.248 8.0674C125.248 9.48051 124.923 10.7671 124.273 11.9271C123.623 13.066 122.658 13.9729 121.379 14.6479C120.12 15.3228 118.589 15.6602 116.786 15.6602H114.018V22.7785H107.034V0.379643H116.786C119.512 0.379643 121.599 1.07565 123.046 2.46768C124.514 3.8597 125.248 5.72627 125.248 8.0674ZM115.999 10.1238C117.446 10.1238 118.17 9.43833 118.17 8.0674C118.17 6.69647 117.446 6.011 115.999 6.011H114.018V10.1238H115.999Z" fill="#2E2E2E"/>
<path d="M152 0.379643L144.01 15.9766V22.7785H137.026V15.9766L129.036 0.379643H137.026L140.581 8.32049L144.136 0.379643H152Z" fill="#2E2E2E"/>
</g>
</svg>
