<svg width="82" height="64" viewBox="0 0 82 64" fill="none" xmlns="http://www.w3.org/2000/svg">
<g id="Snoopy logo" clip-path="url(#clip0_115_159)">
<path id="Vector" d="M58.1655 9.23125C58.1856 6.63652 58.0248 6.43194 56.2057 6.00281C54.9746 5.7134 53.4821 5.42897 53.2108 4.11165C52.9243 2.72946 54.2007 1.84126 55.2811 1.11274C57.065 -0.0948069 59.0701 -0.35428 61.0098 0.469048C65.8289 2.51489 70.8741 3.76236 75.9093 5.09964C77.3062 5.46889 78.653 6.09762 79.9545 6.74131C81.8088 7.65445 82.261 8.93685 81.8691 10.9478C81.3515 13.6273 81.0248 16.3368 80.5173 19.0164C80.065 21.4015 79.1454 23.5671 77.5575 25.5032C76.5726 26.7008 75.9696 28.2077 75.1957 29.5749C74.462 30.8723 73.7032 32.1547 72.9997 33.472C72.5022 34.4051 71.8188 34.4899 70.9243 34.1257C68.3967 33.0978 66.6429 31.1867 65.4419 28.8913C64.3364 26.7806 63.6027 24.4703 62.7485 22.2298C61.864 19.9195 61.1103 17.5494 60.1454 15.274C59.2208 13.0934 58.2057 10.9627 58.1655 9.23125Z" fill="#6A5323"/>
<path id="Vector_2" d="M22.7941 0.0399189C25.2966 0.0997973 26.9901 0.888196 28.2464 2.47996C29.2866 3.79729 29.1207 4.57571 27.6383 5.34913C26.9851 5.68845 26.2413 5.89303 25.5177 6.0577C24.3368 6.33214 23.7288 6.88102 23.8192 8.20833C23.9901 10.7831 22.8243 13.0186 21.8494 15.3139C20.8946 17.5543 20.0152 19.8347 19.3268 22.165C18.1961 25.9872 16.8243 29.6348 13.779 32.4241C10.8846 35.0738 9.7539 34.954 7.87953 31.6407C6.95993 30.019 6.46244 28.078 5.27149 26.7107C2.07048 23.0332 1.22124 18.6521 0.753899 14.0714C0.648372 13.0485 0.407166 12.0306 0.17601 11.0276C-0.316453 8.88695 0.181035 7.54467 2.22124 6.68143C4.43732 5.74832 6.7539 5.03477 9.04536 4.28629C12.7991 3.05879 16.568 1.8712 20.3368 0.688601C21.2815 0.394199 22.2564 0.184625 22.7941 0.0449088V0.0399189Z" fill="#6A5323"/>
<path id="Vector_3" d="M40.3263 46.8997C42.9745 47.0943 44.7836 47.5285 46.3414 48.6811C48.1404 50.0084 48.7936 52.1541 47.9193 54.2049C46.8037 56.8296 44.8539 58.7457 42.2509 59.8734C41.5172 60.1927 40.4017 60.1478 39.6579 59.8285C37.2559 58.7906 35.4569 56.9992 34.2961 54.664C33.075 52.2139 33.7986 49.6442 36.2107 48.3668C37.6831 47.5883 39.3765 47.2241 40.3263 46.8997ZM37.6027 56.3156C38.2258 55.652 38.6328 55.2228 39.0399 54.7887C38.6127 54.4095 38.2308 53.8007 37.7484 53.7009C37.0298 53.5562 36.2308 53.9554 36.3062 54.8087C36.3464 55.2528 36.9996 55.642 37.6077 56.3156H37.6027ZM44.4268 56.3705C45.0399 55.622 45.4117 55.1729 45.7836 54.7189C45.2861 54.3596 44.7986 53.7408 44.2861 53.7209C43.864 53.7059 43.4117 54.3945 42.9745 54.7688C43.3715 55.2079 43.7735 55.642 44.4318 56.3655L44.4268 56.3705Z" fill="#2E2E2E"/>
<path id="Vector_4" d="M51.5076 30.8124C50.8393 28.2376 52.0805 25.114 54.3468 23.8216C54.7941 23.5671 55.4071 23.3576 55.8845 23.4474C57.6333 23.7767 59.3368 24.2857 60.5629 25.6978C59.0705 28.5121 54.4222 31.1068 51.5076 30.8074V30.8124ZM57.0906 25.7277C56.5579 25.3535 56.2363 24.9493 55.97 24.9843C55.6885 25.0192 55.3519 25.4383 55.2564 25.7527C55.2112 25.9024 55.6835 26.3814 55.9298 26.3864C56.2363 26.3864 56.5428 26.0571 57.0906 25.7277Z" fill="#2E2E2E"/>
<path id="Vector_5" d="M30.5624 30.9521C26.5975 30.6627 23.7382 28.7716 21.3262 25.8275C22.7382 24.2907 24.4669 23.5871 26.3362 23.4673C28.2056 23.3476 29.0247 24.9992 29.8789 26.2467C30.7885 27.574 30.7985 29.2057 30.5573 30.9521H30.5624ZM25.9644 24.62C25.6327 25.1539 25.291 25.4683 25.296 25.7776C25.296 26.0022 25.8086 26.4313 26.0096 26.3914C26.3111 26.3265 26.7332 25.9423 26.7533 25.6729C26.7684 25.4034 26.3513 25.104 25.9644 24.62Z" fill="#2E2E2E"/>
<path id="Vector_6" d="M47.7339 62.7525C43.2314 64.4092 38.744 64.4341 34.2666 62.7326C34.2666 62.5529 34.2666 62.3783 34.2666 62.1987H47.7239C47.7239 62.3833 47.7239 62.5679 47.7289 62.7525H47.7339Z" fill="#2E2E2E"/>
<path id="Vector_7" d="M37.5985 56.3156C36.9904 55.647 36.3371 55.2528 36.2969 54.8087C36.2216 53.9604 37.0206 53.5562 37.7392 53.7009C38.2266 53.8007 38.6035 54.4095 39.0306 54.7887C38.6236 55.2178 38.2216 55.652 37.5934 56.3156H37.5985Z" fill="#2E2E2E"/>
<path id="Vector_8" d="M44.4221 56.3705C43.7638 55.647 43.3669 55.2128 42.9648 54.7737C43.402 54.3995 43.8543 53.7059 44.2764 53.7259C44.789 53.7458 45.2764 54.3646 45.7739 54.7238C45.402 55.1779 45.0302 55.627 44.4171 56.3755L44.4221 56.3705Z" fill="#2E2E2E"/>
<path id="Vector_9" d="M57.0905 25.7277C56.5428 26.0571 56.2362 26.3914 55.9297 26.3864C55.6885 26.3864 55.2161 25.9024 55.2563 25.7527C55.3468 25.4383 55.6885 25.0192 55.9699 24.9843C56.2362 24.9493 56.5578 25.3535 57.0905 25.7277Z" fill="white"/>
<path id="Vector_10" d="M25.9652 24.615C26.3522 25.099 26.7743 25.3984 26.7542 25.6679C26.7391 25.9373 26.3119 26.3265 26.0104 26.3864C25.8044 26.4263 25.2969 25.9972 25.2969 25.7727C25.2969 25.4633 25.6336 25.1489 25.9652 24.615Z" fill="white"/>
</g>
<defs>
<clipPath id="clip0_115_159">
<rect width="82" height="64" fill="white"/>
</clipPath>
</defs>
</svg>
